<?xml version="1.0" encoding="UTF-8" standalone="no"?>
<!-- Created with Inkscape (http://www.inkscape.org/) -->

<svg
   xmlns:dc="http://purl.org/dc/elements/1.1/"
   xmlns:cc="http://creativecommons.org/ns#"
   xmlns:rdf="http://www.w3.org/1999/02/22-rdf-syntax-ns#"
   xmlns:svg="http://www.w3.org/2000/svg"
   xmlns="http://www.w3.org/2000/svg"
   xmlns:sodipodi="http://sodipodi.sourceforge.net/DTD/sodipodi-0.dtd"
   xmlns:inkscape="http://www.inkscape.org/namespaces/inkscape"
   version="1.1"
   id="svg2"
   width="960"
   height="707"
   viewBox="0 0 960 707"
   sodipodi:docname="rssid_50.svg"
   inkscape:version="0.92.2 (5c3e80d, 2017-08-06)">
  <metadata
     id="metadata8">
    <rdf:RDF>
      <cc:Work
         rdf:about="">
        <dc:format>image/svg+xml</dc:format>
        <dc:type
           rdf:resource="http://purl.org/dc/dcmitype/StillImage" />
        <dc:title></dc:title>
      </cc:Work>
    </rdf:RDF>
  </metadata>
  <defs
     id="defs6" />
  <sodipodi:namedview
     pagecolor="#ffffff"
     bordercolor="#666666"
     borderopacity="1"
     objecttolerance="10"
     gridtolerance="10"
     guidetolerance="10"
     inkscape:pageopacity="0"
     inkscape:pageshadow="2"
     inkscape:window-width="1920"
     inkscape:window-height="1138"
     id="namedview4"
     showgrid="false"
     inkscape:zoom="0.46698511"
     inkscape:cx="391.56458"
     inkscape:cy="823.94304"
     inkscape:window-x="-8"
     inkscape:window-y="-8"
     inkscape:window-maximized="1"
     inkscape:current-layer="svg2" />
  <path
     inkscape:connector-curvature="0"
     style="fill:#000000;fill-opacity:1;stroke:#000000;stroke-opacity:1"
     d="m 464.2223,705.03593 c -32.5298,-8.52278 -52.6346,-40.74191 -45.7369,-73.29592 3.7943,-17.90685 16.9084,-34.52433 33.5214,-42.4764 10.7208,-5.13167 18.3232,-6.61092 30.7647,-5.98607 22.5037,1.13022 42.1978,14.03949 52.098,34.14973 5.971,12.12883 7.8653,29.40936 4.6223,42.16721 -5.7402,22.58178 -24.8831,41.25971 -47.1141,45.96967 -9.2697,1.96394 -19.3663,1.77452 -28.1554,-0.52822 z"
     id="path4865" />
  <path
     inkscape:connector-curvature="0"
     style="fill:#000000;fill-opacity:1;stroke:#000000;stroke-opacity:1"
     d="m 303.2126,546.49796 c -9.221,-2.48196 -16.4012,-6.64035 -23.2788,-13.48186 -15.8323,-15.74931 -19.4094,-38.14776 -9.3694,-58.66869 3.1736,-6.48677 11.3872,-15.50294 23.8665,-26.19864 45.5677,-39.05506 97.2473,-61.43752 156.4106,-67.74146 19.5744,-2.08568 52.0742,-1.35169 71.5342,1.61556 57.7254,8.80193 113.919,36.7074 154.1127,76.53171 10.0748,9.98215 14.5367,17.23352 16.9786,27.59307 7.4391,31.55929 -17.016,61.90693 -49.8866,61.90693 -12.6178,0 -24.5143,-5.45748 -37.1393,-17.03758 -17.0755,-15.66226 -30.0521,-24.55145 -48.9343,-33.52085 -41.5674,-19.74529 -89.7034,-22.75047 -134.5,-8.39698 -12.9211,4.14012 -37.5472,16.53339 -48.5,24.40797 -4.95,3.55885 -13.7099,10.78647 -19.4664,16.06138 -18.0026,16.49635 -34.0103,21.72524 -51.8278,16.92944 z"
     id="path4863" />
  <path
     inkscape:connector-curvature="0"
     style="fill:none;fill-opacity:1;stroke:#000000;stroke-opacity:1;stroke-width:10.56;stroke-miterlimit:4;stroke-dasharray:none"
     d="m 179.5068,418.35652 c -11.3077,-1.50167 -24.7107,-9.01266 -31.9575,-17.90893 -8.6823,-10.65838 -12.086,-21.42769 -11.3049,-35.76798 0.9263,-17.0045 5.9865,-25.38224 27.0042,-44.70896 34.6456,-31.85823 67.5382,-54.62997 108.7749,-75.3055 49.3757,-24.7563 98.1029,-39.2265 155.9833,-46.32131 20.832,-2.55352 83.1653,-2.55371 104,-3.1e-4 76.2091,9.33983 141.28,32.88792 203,73.46233 35.7453,23.49877 75.5489,58.0468 82.7572,71.83017 6.1477,11.75537 7.6888,23.6586 4.703,36.32548 -3.8658,16.40044 -17.3608,31.1285 -32.9959,36.01085 -13.6203,4.25321 -25.7542,3.47434 -38.0761,-2.4441 -5.2584,-2.52566 -9.9917,-6.11224 -18.1618,-13.76168 -15.0742,-14.11364 -25.5817,-22.90331 -39.5022,-33.04423 -103.6018,-75.47281 -241.3157,-90.3958 -359.7242,-38.98051 -18.3924,7.98636 -37.4287,18.43429 -55.5,30.46082 -18.9968,12.64247 -32.4428,23.34212 -49.7426,39.58277 -14.1361,13.27052 -20.7975,17.35159 -32.2574,19.76205 -6.8148,1.43342 -10.8517,1.62553 -17,0.80904 z"
     id="path4861" />
  <path
     inkscape:connector-curvature="0"
     style="fill:none;fill-opacity:1;stroke:#000000;stroke-opacity:1;stroke-width:10.56;stroke-miterlimit:4;stroke-dasharray:none"
     d="m 40.6409,282.53031 c -8.9183,-2.2532 -17.4313,-7.227 -24.7306,-14.44903 -16.6613,-16.4851 -20.531,-40.97377 -9.8257,-62.18071 7.1839,-14.23136 52.0712,-54.74034 93.3728,-84.26532 29.8199,-21.31716 58.9661,-38.56958 94.0494,-55.67039 151.9841,-74.08235 328.1918,-86.21466 489.4258,-33.6981 87.3994,28.46743 166.026,73.72357 234.6028,135.03341 29.2687,26.16713 37.5397,36.46285 40.9658,50.99414 6.7164,28.48645 -11.4259,57.59884 -40.0974,64.34326 -13.898,3.26923 -30.5517,0.22277 -42.0578,-7.69362 -2.552,-1.75585 -10.6918,-8.98072 -18.0884,-16.05526 C 765.2954,169.97401 644.5979,117.41332 514.0068,108.9763 c -20.4739,-1.32275 -65.1973,-0.75921 -84,1.05844 -125.4349,12.12578 -238.279,63.2975 -328.3265,148.88705 -15.9469,15.15735 -20.1063,18.24034 -29.4131,21.80112 -8.4909,3.24857 -22.7065,4.06098 -31.6263,1.8074 z"
     id="path4848" />
</svg>
