<?xml version="1.0" encoding="UTF-8" standalone="no"?>
<!-- Created with Inkscape (http://www.inkscape.org/) -->

<svg
   xmlns:dc="http://purl.org/dc/elements/1.1/"
   xmlns:cc="http://creativecommons.org/ns#"
   xmlns:rdf="http://www.w3.org/1999/02/22-rdf-syntax-ns#"
   xmlns:svg="http://www.w3.org/2000/svg"
   xmlns="http://www.w3.org/2000/svg"
   xmlns:sodipodi="http://sodipodi.sourceforge.net/DTD/sodipodi-0.dtd"
   xmlns:inkscape="http://www.inkscape.org/namespaces/inkscape"
   version="1.1"
   id="svg2"
   width="425.31766"
   height="425.31769"
   viewBox="0 0 425.31766 425.31769"
   sodipodi:docname="off.svg"
   inkscape:version="0.92.2 (5c3e80d, 2017-08-06)">
  <metadata
     id="metadata8">
    <rdf:RDF>
      <cc:Work
         rdf:about="">
        <dc:format>image/svg+xml</dc:format>
        <dc:type
           rdf:resource="http://purl.org/dc/dcmitype/StillImage" />
        <dc:title></dc:title>
      </cc:Work>
    </rdf:RDF>
  </metadata>
  <defs
     id="defs6" />
  <sodipodi:namedview
     pagecolor="#ffffff"
     bordercolor="#666666"
     borderopacity="1"
     objecttolerance="10"
     gridtolerance="10"
     guidetolerance="10"
     inkscape:pageopacity="0"
     inkscape:pageshadow="2"
     inkscape:window-width="1461"
     inkscape:window-height="799"
     id="namedview4"
     showgrid="false"
     fit-margin-top="0"
     fit-margin-left="0"
     fit-margin-right="0"
     fit-margin-bottom="0"
     inkscape:zoom="0.34570311"
     inkscape:cx="-193.75927"
     inkscape:cy="212.65884"
     inkscape:window-x="0"
     inkscape:window-y="0"
     inkscape:window-maximized="0"
     inkscape:current-layer="svg2" />
  <path
     style="fill:#000000;stroke-width:1.33333337"
     d="M 41.9908,382.65749 0.00531,340.65612 63.99353,276.65749 127.98175,212.65884 63.99087,148.65755 0,84.65625 42.32812,42.32813 84.65624,0 148.65754,63.99088 212.65883,127.98176 276.66012,63.99088 340.66141,0 l 42.32812,42.32813 42.32812,42.32812 -63.99086,64.0013 -63.99088,64.00129 63.99088,64.0013 63.99086,64.0013 -42.32812,42.32812 -42.32812,42.32812 -64.00129,-63.99087 -64.00129,-63.99088 -63.67183,63.66147 c -35.01949,35.0138 -63.97307,63.66145 -64.34126,63.66145 -0.3682,0 -19.56292,-18.90061 -42.65494,-42.00136 z"
     id="path8438"
     inkscape:connector-curvature="0" />
</svg>
