<?xml version="1.0" encoding="UTF-8" standalone="no"?>
<!-- Created with Inkscape (http://www.inkscape.org/) -->

<svg
   xmlns:dc="http://purl.org/dc/elements/1.1/"
   xmlns:cc="http://creativecommons.org/ns#"
   xmlns:rdf="http://www.w3.org/1999/02/22-rdf-syntax-ns#"
   xmlns:svg="http://www.w3.org/2000/svg"
   xmlns="http://www.w3.org/2000/svg"
   xmlns:sodipodi="http://sodipodi.sourceforge.net/DTD/sodipodi-0.dtd"
   xmlns:inkscape="http://www.inkscape.org/namespaces/inkscape"
   version="1.1"
   id="svg2"
   width="768"
   height="264.95999"
   viewBox="0 0 768 264.95999"
   sodipodi:docname="ISO_Linker.svg"
   inkscape:version="0.92.2 (5c3e80d, 2017-08-06)">
  <metadata
     id="metadata8">
    <rdf:RDF>
      <cc:Work
         rdf:about="">
        <dc:format>image/svg+xml</dc:format>
        <dc:type
           rdf:resource="http://purl.org/dc/dcmitype/StillImage" />
        <dc:title />
        <cc:license
           rdf:resource="http://creativecommons.org/publicdomain/zero/1.0/" />
      </cc:Work>
      <cc:License
         rdf:about="http://creativecommons.org/publicdomain/zero/1.0/">
        <cc:permits
           rdf:resource="http://creativecommons.org/ns#Reproduction" />
        <cc:permits
           rdf:resource="http://creativecommons.org/ns#Distribution" />
        <cc:permits
           rdf:resource="http://creativecommons.org/ns#DerivativeWorks" />
      </cc:License>
    </rdf:RDF>
  </metadata>
  <defs
     id="defs6">
    <clipPath
       clipPathUnits="userSpaceOnUse"
       id="clipPath8502">
      <rect
         style="opacity:1;fill:none;fill-opacity:1;stroke:#000000;stroke-width:1.33333337;stroke-miterlimit:4;stroke-dasharray:none;stroke-opacity:1"
         id="rect8504"
         width="231.27077"
         height="208.14369"
         x="440.271"
         y="-628.43042" />
    </clipPath>
  </defs>
  <sodipodi:namedview
     pagecolor="#ffffff"
     bordercolor="#666666"
     borderopacity="1"
     objecttolerance="10"
     gridtolerance="10"
     guidetolerance="10"
     inkscape:pageopacity="0"
     inkscape:pageshadow="2"
     inkscape:window-width="1920"
     inkscape:window-height="1138"
     id="namedview4"
     showgrid="false"
     inkscape:zoom="0.65494792"
     inkscape:cx="218.23281"
     inkscape:cy="-49.498561"
     inkscape:window-x="-8"
     inkscape:window-y="-8"
     inkscape:window-maximized="1"
     inkscape:current-layer="svg2" />
  <path
     style="fill:#000000;stroke-width:0.0895793"
     d="m 462.56954,413.4756 c -2.80653,-2.31509 -6.47816,-5.00666 -9.36397,-6.86449 -6.22189,-4.00553 -13.07336,-7.46296 -20.03837,-10.11191 -5.163,-1.96359 -11.35855,-3.81757 -16.87421,-5.0495 -8.72869,-1.94955 -18.51488,-3.045 -26.49508,-2.96582 -1.59509,0.0158 -2.04069,0.069 -5.72795,0.68373 -17.94458,2.9916 -35.0218,4.22168 -51.5882,3.71593 -16.3923,-0.50042 -31.78811,-2.67737 -46.95874,-6.63989 -2.79676,-0.73051 -10.19341,-2.97133 -12.88425,-3.9033 -18.13482,-6.28093 -34.27375,-14.95176 -48.17111,-25.88046 -6.14501,-4.83235 -12.00948,-10.35538 -15.93367,-15.00596 l -0.85943,-1.01852 -7.45646,14.78305 -7.45646,14.78306 -0.32273,-0.54365 c -0.95696,-1.6121 -4.38986,-9.34041 -6.36346,-14.32574 -10.36713,-26.18751 -15.45758,-54.96097 -14.84833,-83.92923 0.19647,-9.34157 1.03529,-18.83097 2.3567,-26.66082 0.34468,-2.04229 0.73604,-4.03925 0.80756,-4.12048 0.0246,-0.028 0.51714,0.50906 1.09448,1.19339 11.20579,13.28259 26.80441,26.63026 44.76787,38.30768 12.40045,8.0611 26.76738,15.86409 38.54438,20.9343 0.8068,0.34734 1.46238,0.64459 1.45685,0.66054 -0.009,0.0257 -22.42097,11.24954 -25.51406,12.77726 l -1.22075,0.60296 1.62401,1.15406 c 13.75603,9.77535 30.28586,16.4163 48.57978,19.51718 6.37006,1.07975 13.92865,1.73158 19.21374,1.65693 1.43913,-0.0204 4.10575,-0.30481 5.85706,-0.62485 4.68688,-0.85651 8.68891,-2.24268 12.83756,-4.44648 2.89524,-1.53794 4.99125,-2.93603 7.41429,-4.94535 9.41554,-7.80788 15.36786,-19.14468 16.55668,-31.53391 0.55419,-5.77548 -0.028,-14.33017 -1.5028,-22.08162 -2.24359,-11.79223 -6.36729,-23.93456 -13.25068,-39.0169 -5.1553,-11.2959 -24.23854,-49.88988 -65.44275,-132.35156 C 251.27563,73.944127 249.25649,69.893207 248.74752,68.801677 l -0.44543,-0.95527 -0.34368,0.18132 c -0.18909,0.0996 -17.431,8.86492 -38.31549,19.47825 -30.50652,15.503163 -38.00159,19.286653 -38.12333,19.244543 -0.18597,-0.0643 -42.13713,-24.002883 -42.27718,-24.124593 -0.0829,-0.072 0.14296,-0.21653 1.31156,-0.8393 6.03568,-3.21659 99.13252,-53.35384 99.14494,-53.39447 0.009,-0.0287 -3.06785,-6.3952 -6.83693,-14.1477 -3.76907,-7.7524803 -7.36953,-15.20626032 -8.001,-16.5639203 -0.63148,-1.35768 -1.16507,-2.47296 -1.18577,-2.4784 -0.0207,-0.005 -1.09921,0.0116 -2.39671,0.0379 -11.10805,0.2251 -21.76685,-2.68934 -31.34464,-8.5705397 -1.70652,-1.04788 -5.02023,-3.45089 -6.61817,-4.79931 -10.34675,-8.7311 -17.30512,-20.9004 -19.57582,-34.23557 -2.12873,-12.50154 0.0444,-25.54793 6.11972,-36.73869 1.23176,-2.26893 2.18337,-3.78263 3.81957,-6.0757 4.01087,-5.621077 8.69826,-10.152967 14.7742,-14.284047 1.53321,-1.04244 7.59941,-4.30258 9.35045,-5.02517 7.00685,-2.89151 13.89061,-4.37091 21.03418,-4.5205 19.14969,-0.401 37.33275,8.85519 48.1411,24.506507 1.55841,2.2567 2.39792,3.68156 3.93238,6.67422 1.46395,2.85515 2.07792,4.23841 2.93672,6.61642 4.55332,12.60811 4.49731,26.46752 -0.15803,39.10863 -1.77365,4.81617 -4.20972,9.40906 -7.19761,13.57017 -0.98049,1.3655 -1.05515,1.49817 -0.95474,1.69649 0.0599,0.11833 0.44419,0.99565 0.85397,1.9496 0.73082,1.70132 0.89824,2.01053 8.76539,16.1882897 4.41119,7.94960998 8.09313,14.5863 8.18208,14.74821 l 0.1617,0.2944 50.42633,-26.8032297 50.42635,-26.80324 -2.23551,25.21207 -2.23549,25.2120597 -36.83505,19.5976103 -36.83505,19.59761 0.12239,0.23004 c 0.0673,0.12652 23.22898,41.55793 51.47037,92.069773 45.69379,81.72679 51.46754,92.02193 52.43373,93.49438 10.93578,16.66576 22.82046,26.86657 35.68856,30.63205 4.3873,1.28382 8.31323,1.78272 12.77329,1.6232 5.2367,-0.1873 10.40249,-1.37093 16.1441,-3.69908 1.96584,-0.79713 7.37203,-3.67177 9.33298,-4.96265 4.12708,-2.7168 7.79259,-5.6294 11.12365,-8.83878 1.64869,-1.58848 5.40919,-5.58815 6.70863,-7.13534 9.2943,-11.06623 15.35133,-27.10823 17.56055,-46.50893 0.57212,-5.0242 0.89933,-11.42488 0.79549,-15.56073 l -0.0256,-1.01974 -0.4577,0.13643 c -0.25173,0.075 -7.35394,2.32217 -15.78268,4.99366 -8.42874,2.67147 -15.44029,4.88316 -15.58121,4.91487 -0.24606,0.0554 -0.22946,0.003 0.41933,-1.30973 2.28408,-4.62315 3.75408,-8.41129 5.55774,-14.32207 1.53513,-5.03076 2.36479,-8.40678 3.32445,-13.52759 3.38084,-18.04041 3.84072,-40.13152 1.3172,-63.273753 -0.51925,-4.76179 -1.16776,-9.53005 -1.82741,-13.4363 -0.15998,-0.94733 -0.2657,-1.75669 -0.23494,-1.79857 0.0647,-0.0881 1.4804,0.46348 4.39915,1.7139 19.35935,8.29377 36.37668,20.661895 50.05336,36.378573 7.33322,8.42705 13.40681,17.27628 18.74918,27.31764 3.71756,6.9874 6.57545,13.53318 8.84381,20.25605 0.78531,2.32749 1.73865,5.558 1.68877,5.72264 -0.005,0.0169 -6.16568,0.19939 -13.69018,0.40566 -7.5245,0.20627 -13.68548,0.39047 -13.69106,0.40934 -0.006,0.0189 0.19742,0.60878 0.45113,1.31091 11.23524,31.09382 10.22605,63.1099 -2.98829,94.80142 -7.51921,18.03309 -18.92002,35.75663 -33.34901,51.84393 -4.1844,4.6653 -9.62334,10.11882 -13.22733,13.26278 -1.08586,0.94726 -1.9642,1.92539 -3.7975,4.229 -12.36283,15.53431 -20.86305,35.17203 -24.74667,57.17127 -1.35035,7.64918 -2.20944,17.17664 -2.08302,23.10113 0.0156,0.73093 0.0101,1.33885 -0.0122,1.35094 -0.0224,0.0119 -0.52004,-0.37356 -1.10612,-0.85701 z M 227.7796,-37.158503 c 4.02167,-2.89826 7.06038,-6.38027 9.36108,-10.72671 3.85289,-7.27884 4.55551,-16.05558 1.90891,-23.84538 -0.58641,-1.72599 -1.04645,-2.78092 -1.96793,-4.51264 -1.61303,-3.03179 -3.31723,-5.30753 -5.7115,-7.62822 -3.62888,-3.51735 -8.49982,-6.27173 -13.28517,-7.51239 -6.41197,-1.66237 -12.58231,-1.33595 -18.84,0.99664 -1.37529,0.51264 -4.89751,2.3559 -6.10208,3.19333 -4.90225,3.40815 -8.52487,7.82631 -10.89225,13.28422 -0.63774,1.47029 -1.57985,4.55766 -1.88057,6.16277 -1.57942,8.43036 0.34209,16.93438 5.36902,23.76165 3.78949,5.14667 9.08533,8.94242 15.21908,10.90818 6.9258,2.21959 14.41789,1.90002 21.10668,-0.90031 1.24064,-0.5194 4.67082,-2.42884 5.71473,-3.18114 z"
     id="path8506"
     inkscape:connector-curvature="0"
     inkscape:export-xdpi="75"
     inkscape:export-ydpi="75" />
</svg>
