<?xml version="1.0" encoding="UTF-8" standalone="no"?>
<!-- Created with Inkscape (http://www.inkscape.org/) -->

<svg
   xmlns:dc="http://purl.org/dc/elements/1.1/"
   xmlns:cc="http://creativecommons.org/ns#"
   xmlns:rdf="http://www.w3.org/1999/02/22-rdf-syntax-ns#"
   xmlns:svg="http://www.w3.org/2000/svg"
   xmlns="http://www.w3.org/2000/svg"
   xmlns:sodipodi="http://sodipodi.sourceforge.net/DTD/sodipodi-0.dtd"
   xmlns:inkscape="http://www.inkscape.org/namespaces/inkscape"
   width="49.344837mm"
   height="84.288376mm"
   viewBox="0 0 49.344837 84.288376"
   version="1.1"
   id="svg9337"
   inkscape:version="0.92.2 (5c3e80d, 2017-08-06)"
   sodipodi:docname="batt_charge.svg">
  <defs
     id="defs9331" />
  <sodipodi:namedview
     id="base"
     pagecolor="#ffffff"
     bordercolor="#666666"
     borderopacity="1.0"
     inkscape:pageopacity="0.0"
     inkscape:pageshadow="2"
     inkscape:zoom="0.35"
     inkscape:cx="-161.03562"
     inkscape:cy="316.42799"
     inkscape:document-units="mm"
     inkscape:current-layer="layer1"
     showgrid="false"
     fit-margin-top="0"
     fit-margin-left="0"
     fit-margin-right="0"
     fit-margin-bottom="0"
     inkscape:window-width="1090"
     inkscape:window-height="647"
     inkscape:window-x="728"
     inkscape:window-y="220"
     inkscape:window-maximized="0" />
  <metadata
     id="metadata9334">
    <rdf:RDF>
      <cc:Work
         rdf:about="">
        <dc:format>image/svg+xml</dc:format>
        <dc:type
           rdf:resource="http://purl.org/dc/dcmitype/StillImage" />
        <dc:title></dc:title>
      </cc:Work>
    </rdf:RDF>
  </metadata>
  <g
     inkscape:label="Layer 1"
     inkscape:groupmode="layer"
     id="layer1"
     transform="translate(-16.149007,-148.26653)">
    <g
       transform="matrix(0.26458333,0,0,0.26458333,-251.06667,-107.06095)"
       id="g5073">
      <path
         inkscape:connector-curvature="0"
         id="path4820"
         d="m 1024.4499,1282.1334 c -4.3496,-1.7344 -9.0396,-6.1758 -11.794,-11.1687 -1.9985,-3.6227 -2.245,-15.3176 -2.613,-124 -0.2235,-66 -0.034,-123.1197 0.4209,-126.9327 1.0611,-8.8933 5.1473,-14.9629 12.6121,-18.734 5.4066,-2.73136 7.8119,-3 26.8605,-3 h 20.9221 l 0.462,-12.63849 c 0.429,-11.73475 0.7263,-12.90271 4.1568,-16.33333 3.6616,-3.66164 3.8754,-3.69896 23.7924,-4.15299 23.3818,-0.53301 28.3213,0.1454 32.6618,4.48591 2.9122,2.91213 3.1844,4.27242 3.1844,15.91164 V 998.298 h 21.579 c 25.5985,0 30.7883,1.60156 36.4398,11.2452 l 3.3145,5.6558 -0.022,125.8828 -0.022,125.8829 -3.0053,5.3062 c -1.685,2.9751 -5.3362,6.6263 -8.3114,8.3114 l -5.3061,3.0052 -76,-0.062 c -47.2263,-0.039 -77.2618,-0.5657 -79.3327,-1.3915 z"
         style="fill:#000000;stroke-width:1.33333337" />
      <path
         inkscape:connector-curvature="0"
         id="path4818"
         d="m 1106.8092,1201.9647 c 1.8787,-2.314 30.9734,-73.6473 30.9734,-75.9395 0,-4.0643 -3.2024,-5.0605 -16.2667,-5.0605 h -13.0667 v -21.1701 c 0,-17.6892 -0.3472,-21.4582 -2.1117,-22.9227 -1.5162,-1.2583 -2.7383,-1.3642 -4.3334,-0.3754 -1.2218,0.7575 -9.3272,18.5941 -18.0119,39.6371 -12.8302,31.0875 -15.4866,38.6258 -14.17,40.2121 1.2321,1.4847 4.9345,1.9523 15.457,1.9523 h 13.8367 v 21.7778 c 0,11.9778 0.4,22.1778 0.8889,22.6667 1.456,1.456 5.3524,1.0107 6.8044,-0.7778 z"
         style="fill:#ffffff;stroke-width:1.33333337" />
    </g>
  </g>
</svg>
