<?xml version="1.0" encoding="UTF-8" standalone="no"?>
<!-- Created with Inkscape (http://www.inkscape.org/) -->

<svg
   xmlns:dc="http://purl.org/dc/elements/1.1/"
   xmlns:cc="http://creativecommons.org/ns#"
   xmlns:rdf="http://www.w3.org/1999/02/22-rdf-syntax-ns#"
   xmlns:svg="http://www.w3.org/2000/svg"
   xmlns="http://www.w3.org/2000/svg"
   xmlns:sodipodi="http://sodipodi.sourceforge.net/DTD/sodipodi-0.dtd"
   xmlns:inkscape="http://www.inkscape.org/namespaces/inkscape"
   width="49.344837mm"
   height="84.288376mm"
   viewBox="0 0 49.344837 84.288376"
   version="1.1"
   id="svg9337"
   inkscape:version="0.92.2 (5c3e80d, 2017-08-06)"
   sodipodi:docname="batt_full.svg">
  <defs
     id="defs9331" />
  <sodipodi:namedview
     id="base"
     pagecolor="#ffffff"
     bordercolor="#666666"
     borderopacity="1.0"
     inkscape:pageopacity="0.0"
     inkscape:pageshadow="2"
     inkscape:zoom="0.35"
     inkscape:cx="-161.03562"
     inkscape:cy="316.42799"
     inkscape:document-units="mm"
     inkscape:current-layer="layer1"
     showgrid="false"
     fit-margin-top="0"
     fit-margin-left="0"
     fit-margin-right="0"
     fit-margin-bottom="0"
     inkscape:window-width="1920"
     inkscape:window-height="1138"
     inkscape:window-x="-8"
     inkscape:window-y="-8"
     inkscape:window-maximized="1" />
  <metadata
     id="metadata9334">
    <rdf:RDF>
      <cc:Work
         rdf:about="">
        <dc:format>image/svg+xml</dc:format>
        <dc:type
           rdf:resource="http://purl.org/dc/dcmitype/StillImage" />
        <dc:title></dc:title>
      </cc:Work>
    </rdf:RDF>
  </metadata>
  <g
     inkscape:label="Layer 1"
     inkscape:groupmode="layer"
     id="layer1"
     transform="translate(-16.149007,-148.26653)">
    <g
       transform="matrix(0.26458333,0,0,0.26458333,-93.37502,-107.07063)"
       id="g5069">
      <path
         inkscape:connector-curvature="0"
         id="path4832"
         d="m 428.45,1282.1334 c -4.3496,-1.7344 -9.0397,-6.1758 -11.7941,-11.1687 -1.9985,-3.6227 -2.2449,-15.3176 -2.613,-124 -0.2234,-66 -0.034,-123.1197 0.4209,-126.9327 1.0611,-8.8933 5.1473,-14.9629 12.6121,-18.734 5.4056,-2.7308 7.8131,-3 26.8302,-3 h 20.89176 l 0.55543,-12.69942 c 0.51077,-11.67844 0.84729,-12.99156 4.18578,-16.33334 3.62064,-3.6242 3.68951,-3.63504 25.7722,-4.05917 31.93592,-0.61336 33.80467,0.53216 33.80467,20.72195 V 998.298 h 21.79029 c 20.1754,0 22.22058,0.22755 27.59635,3.0703 3.96844,2.0986 6.77781,4.908 8.87637,8.8764 l 3.07032,5.8061 -0.022,125.4569 -0.0219,125.457 -3.00524,5.3062 c -1.68502,2.9751 -5.33628,6.6263 -8.31139,8.3114 l -5.30616,3.0052 -76,-0.062 c -47.22628,-0.039 -77.26178,-0.5657 -79.33268,-1.3915 z"
         style="fill:#000000;stroke-width:1.33333337" />
      <path
         inkscape:connector-curvature="0"
         id="path4830"
         d="m 578.7897,1141.298 0.34041,-120.3333 H 507.7897 436.4493 v 120.6783 120.6784 l 70.99997,-0.345 71,-0.345 z"
         style="fill:#ffffff;stroke-width:1.33333337" />
      <path
         inkscape:connector-curvature="0"
         id="path4828"
         d="m 449.9377,1247.1516 c -1.0958,-1.3203 -1.4119,-30.3977 -1.1632,-107 l 0.3414,-105.1869 57.91248,-0.3477 c 45.44424,-0.2728 58.14277,0.014 58.98224,1.3333 1.59433,2.5053 1.26649,207.5552 -0.33664,210.5507 -1.25045,2.3365 -4.23347,2.4637 -57.77503,2.4637 -45.96995,0 -56.73595,-0.3368 -57.96125,-1.8131 z"
         style="fill:#000000;stroke-width:1.33333337" />
    </g>
  </g>
</svg>
