<?xml version="1.0" encoding="UTF-8" standalone="no"?>
<!-- Created with Inkscape (http://www.inkscape.org/) -->

<svg
   xmlns:dc="http://purl.org/dc/elements/1.1/"
   xmlns:cc="http://creativecommons.org/ns#"
   xmlns:rdf="http://www.w3.org/1999/02/22-rdf-syntax-ns#"
   xmlns:svg="http://www.w3.org/2000/svg"
   xmlns="http://www.w3.org/2000/svg"
   xmlns:sodipodi="http://sodipodi.sourceforge.net/DTD/sodipodi-0.dtd"
   xmlns:inkscape="http://www.inkscape.org/namespaces/inkscape"
   width="49.344837mm"
   height="84.288376mm"
   viewBox="0 0 49.344837 84.288376"
   version="1.1"
   id="svg9337"
   inkscape:version="0.92.2 (5c3e80d, 2017-08-06)"
   sodipodi:docname="batt_60.svg">
  <defs
     id="defs9331" />
  <sodipodi:namedview
     id="base"
     pagecolor="#ffffff"
     bordercolor="#666666"
     borderopacity="1.0"
     inkscape:pageopacity="0.0"
     inkscape:pageshadow="2"
     inkscape:zoom="0.35"
     inkscape:cx="-161.03562"
     inkscape:cy="316.42799"
     inkscape:document-units="mm"
     inkscape:current-layer="layer1"
     showgrid="false"
     fit-margin-top="0"
     fit-margin-left="0"
     fit-margin-right="0"
     fit-margin-bottom="0"
     inkscape:window-width="1920"
     inkscape:window-height="1138"
     inkscape:window-x="-8"
     inkscape:window-y="-8"
     inkscape:window-maximized="1" />
  <metadata
     id="metadata9334">
    <rdf:RDF>
      <cc:Work
         rdf:about="">
        <dc:format>image/svg+xml</dc:format>
        <dc:type
           rdf:resource="http://purl.org/dc/dcmitype/StillImage" />
        <dc:title></dc:title>
      </cc:Work>
    </rdf:RDF>
  </metadata>
  <g
     inkscape:label="Layer 1"
     inkscape:groupmode="layer"
     id="layer1"
     transform="translate(-16.149007,-148.26653)">
    <g
       transform="matrix(0.26458333,0,0,0.26458333,-172.28671,111.53401)"
       id="g5032">
      <path
         inkscape:connector-curvature="0"
         id="path4764"
         d="m 725.81001,455.49288 c -4.70525,-1.90048 -7.93242,-5.11945 -10.83595,-10.80842 -2.42427,-4.74992 -2.52479,-9.9144 -2.52479,-129.7095 0,-136.37486 -0.35968,-130.1048 7.86011,-137.0213 6.21391,-5.22867 11.98474,-6.30663 33.80655,-6.31488 l 19.66667,-0.007 v -11.89771 c 0,-10.85455 0.30265,-12.25738 3.45185,-16 l 3.45187,-4.1023 h 24.47379 c 23.94516,0 24.5546,0.0695 28.21481,3.21632 3.5338,3.03817 3.7664,3.9183 4.19929,15.88963 l 0.45828,12.67331 22.20839,0.44371 c 20.43318,0.40824 22.60268,0.68888 27.14117,3.51091 2.71304,1.68697 6.31304,5.28697 8,8 l 3.06721,4.93279 v 126.66623 c 0,122.90288 -0.0767,126.79341 -2.58074,130.93217 -1.41942,2.34603 -4.41942,5.64603 -6.66667,7.33334 l -4.08592,3.06782 -78,0.26508 c -49.62029,0.16864 -79.20282,-0.22074 -81.30592,-1.0702 z"
         style="fill:#000000;stroke-width:1.33333337" />
      <path
         inkscape:connector-curvature="0"
         id="path4762"
         d="M 876.44926,314.96467 V 194.29801 H 805.10284 733.7564 l 0.0403,119.80495 c 0.0221,65.89272 0.42805,120.19272 0.90198,120.66667 0.47396,0.47393 32.56172,0.86171 71.30618,0.86171 h 70.44443 z"
         style="fill:#ffffff;stroke-width:1.33333337" />
      <path
         inkscape:connector-curvature="0"
         id="path4760"
         d="m 747.70167,420.56791 c -0.37114,-0.96717 -0.50475,-8.92356 -0.29692,-17.68087 l 0.37785,-15.92237 55.33333,-0.37061 c 30.43334,-0.20383 56.70115,-0.0379 58.37291,0.36868 2.99109,0.72748 3.03362,1.00985 2.66666,17.70393 l -0.3729,16.96467 -57.70307,0.34752 c -46.78462,0.28177 -57.83074,0.0148 -58.37786,-1.41095 z"
         style="fill:#000000;stroke-width:1.33333337" />
      <path
         inkscape:connector-curvature="0"
         id="path4758"
         d="m 747.11593,359.63134 v -17.36136 l 58.33334,0.34734 58.33333,0.34735 v 16.66667 16.66666 l -58.33333,0.34735 -58.33334,0.34735 z"
         style="fill:#000000;stroke-width:1.33333337" />
      <path
         inkscape:connector-curvature="0"
         id="path4756"
         d="m 747.69623,331.22038 c -0.36814,-0.95936 -0.49931,-8.90936 -0.29148,-17.66667 l 0.37785,-15.92237 h 58 58 l 0.3762,16.56148 c 0.28062,12.3536 -0.0581,16.83709 -1.33334,17.64625 -0.94024,0.59663 -27.07835,1.09396 -58.0847,1.10519 -45.22272,0.0164 -56.5076,-0.32466 -57.04453,-1.72388 z"
         style="fill:#000000;stroke-width:1.33333337" />
    </g>
  </g>
</svg>
