<?xml version="1.0" encoding="UTF-8" standalone="no"?>
<!-- Created with Inkscape (http://www.inkscape.org/) -->

<svg
   xmlns:dc="http://purl.org/dc/elements/1.1/"
   xmlns:cc="http://creativecommons.org/ns#"
   xmlns:rdf="http://www.w3.org/1999/02/22-rdf-syntax-ns#"
   xmlns:svg="http://www.w3.org/2000/svg"
   xmlns="http://www.w3.org/2000/svg"
   xmlns:sodipodi="http://sodipodi.sourceforge.net/DTD/sodipodi-0.dtd"
   xmlns:inkscape="http://www.inkscape.org/namespaces/inkscape"
   width="49.344837mm"
   height="84.288376mm"
   viewBox="0 0 49.344837 84.288376"
   version="1.1"
   id="svg9337"
   inkscape:version="0.92.2 (5c3e80d, 2017-08-06)"
   sodipodi:docname="batt.svg">
  <defs
     id="defs9331" />
  <sodipodi:namedview
     id="base"
     pagecolor="#ffffff"
     bordercolor="#666666"
     borderopacity="1.0"
     inkscape:pageopacity="0.0"
     inkscape:pageshadow="2"
     inkscape:zoom="0.35"
     inkscape:cx="-161.03562"
     inkscape:cy="316.42799"
     inkscape:document-units="mm"
     inkscape:current-layer="layer1"
     showgrid="false"
     fit-margin-top="0"
     fit-margin-left="0"
     fit-margin-right="0"
     fit-margin-bottom="0"
     inkscape:window-width="1920"
     inkscape:window-height="1138"
     inkscape:window-x="-8"
     inkscape:window-y="-8"
     inkscape:window-maximized="1" />
  <metadata
     id="metadata9334">
    <rdf:RDF>
      <cc:Work
         rdf:about="">
        <dc:format>image/svg+xml</dc:format>
        <dc:type
           rdf:resource="http://purl.org/dc/dcmitype/StillImage" />
        <dc:title></dc:title>
      </cc:Work>
    </rdf:RDF>
  </metadata>
  <g
     inkscape:label="Layer 1"
     inkscape:groupmode="layer"
     id="layer1"
     transform="translate(-16.149007,-148.26653)">
    <g
       transform="matrix(0.26458333,0,0,0.26458333,-93.383494,2.3253343)"
       id="g5054">
      <path
         inkscape:connector-curvature="0"
         id="path4810"
         d="m 426.331,867.79442 c -5.5394,-3.40167 -9.585,-8.77614 -11.2441,-14.93743 -0.9058,-3.36391 -1.2468,-46.90577 -1.0045,-128.25736 l 0.3669,-123.16448 3.7548,-5.67324 c 6.1234,-9.25187 11.0641,-10.73331 35.9118,-10.76796 l 21.00004,-0.0293 v -10.04283 c 0,-20.7274 3.56835,-23.2905 32.42488,-23.2905 29.27783,0 31.57512,1.54872 31.57512,21.28642 v 12.04693 l 20.33333,0.008 c 11.18334,0.004 22.45995,0.59821 25.05915,1.32029 5.36106,1.48935 12.42113,8.17678 14.52574,13.75907 0.96108,2.5492 1.41511,43.76595 1.41511,128.46516 0,138.80091 0.57079,130.15864 -9.08296,137.52331 l -4.70769,3.5914 -78.10468,0.34601 C 433.8692,870.30879 430.269,870.2132 426.331,867.79498 Z"
         style="fill:#000000;stroke-width:1.33333337" />
      <path
         inkscape:connector-curvature="0"
         id="path4808"
         d="M 579.11594,728.298 V 607.63134 H 507.78261 436.4493 V 728.298 848.96467 h 71.33331 71.33333 z"
         style="fill:#ffffff;stroke-width:1.33333337" />
    </g>
  </g>
</svg>
